<?xml version="1.0" encoding="UTF-8"?>
<!-- Generator: visioncortex VTracer 0.6.4 -->
<svg version="1.1" xmlns="http://www.w3.org/2000/svg" width="2000" height="2000">
<path d="M0 0 C660 0 1320 0 2000 0 C2000 660 2000 1320 2000 2000 C1340 2000 680 2000 0 2000 C0 1340 0 680 0 0 Z " fill="#1E1E1E" transform="translate(0,0)"/>
<path d="M0 0 C1.78 0.07 1.78 0.07 3.59 0.13 C6.42 0.31 9.19 0.61 12 1 C13.03 1.14 14.07 1.28 15.13 1.42 C33.91 4.55 52.4 11.79 69 21 C70.21 21.64 71.41 22.28 72.62 22.93 C95.25 35.16 114.65 53.84 130.5 73.88 C130.94 74.43 131.38 74.98 131.83 75.55 C157.51 108.31 174.85 146.4 187 186 C187.35 187.12 187.35 187.12 187.7 188.26 C208.71 256.5 213.2 330.78 217.19 401.62 C217.23 402.38 217.27 403.14 217.32 403.92 C217.57 408.38 217.81 412.85 218.05 417.31 C218.16 419.29 218.27 421.28 218.38 423.27 C220.44 462.28 220 500.77 220 540 C151.36 540 82.72 540 12 540 C13.64 533.98 15.26 528.07 17.14 522.14 C20.98 509.93 23.62 497.57 26 485 C26.18 484.04 26.37 483.07 26.55 482.08 C29.09 468.58 31.15 455.04 32.63 441.39 C32.88 439.1 33.14 436.82 33.42 434.54 C36.11 411.9 36.27 389.27 36.25 366.5 C36.25 365.74 36.25 364.99 36.25 364.21 C36.24 341.37 36.04 318.73 32.94 296.06 C32.66 293.97 32.38 291.87 32.1 289.77 C31.86 287.91 31.6 286.05 31.35 284.19 C31 281 31 281 31 276 C13.84 276 -3.32 276 -21 276 C-20.99 279.71 -20.98 283.41 -20.96 287.23 C-20.87 323.69 -21.4 359.7 -25 396 C-25.11 397.13 -25.22 398.27 -25.34 399.43 C-29.69 442.51 -39.95 492.15 -74 522 C-85.22 530.41 -97.5 534.83 -111 538 C-111.9 538.23 -112.8 538.46 -113.73 538.69 C-130.11 542.33 -150.22 541.24 -165 533 C-165.86 532.53 -166.72 532.06 -167.6 531.57 C-179.82 524.37 -188.68 514 -196 502 C-196.36 501.41 -196.73 500.81 -197.1 500.2 C-242.01 424.93 -228.44 307.33 -209 211 C-208.71 209.75 -208.42 208.5 -208.12 207.21 C-201.87 180.66 -193.52 154.77 -182 130 C-181.61 129.17 -181.23 128.33 -180.83 127.48 C-169.7 103.76 -155.31 81.8 -137 63 C-136.39 62.37 -135.77 61.73 -135.14 61.08 C-127.17 52.87 -119.17 44.88 -110 38 C-109.48 37.61 -108.96 37.21 -108.42 36.81 C-76.31 12.79 -40.48 -1.65 0 0 Z " fill="#F5F3EF" transform="translate(769,572)"/>
<path d="M0 0 C1.12 0.03 1.12 0.03 2.25 0.07 C11.47 0.35 20.09 1.62 29 4 C29.86 4.19 30.73 4.38 31.62 4.58 C61.83 11.7 86.28 33.01 102.6 58.72 C130.02 103.41 138.21 157.12 138.53 208.78 C138.54 209.55 138.55 210.33 138.56 211.12 C138.58 212.58 138.59 214.03 138.58 215.48 C138.65 219.82 139.44 222.49 142 226 C144.31 225.67 146.62 225.34 149 225 C150.28 221.16 150.14 217.56 150.13 213.56 C150.13 212.7 150.13 211.84 150.13 210.95 C150.14 208.09 150.14 205.22 150.13 202.36 C150.13 200.37 150.13 198.37 150.14 196.37 C150.14 192.17 150.14 187.97 150.13 183.77 C150.12 178.43 150.13 173.09 150.13 167.75 C150.14 163.62 150.14 159.48 150.13 155.35 C150.13 153.38 150.13 151.42 150.14 149.45 C150.15 133.65 149.76 118.08 147.25 102.44 C147.08 101.33 146.9 100.22 146.72 99.08 C144.91 87.95 142.61 76.97 140 66 C139.78 65.06 139.56 64.12 139.34 63.15 C134.51 42.66 127.22 23.3 118.43 4.19 C117 1 117 1 117 0 C165.18 0 213.36 0 263 0 C263.08 48.83 263.08 48.83 263.1 69.28 C263.11 83.41 263.12 97.53 263.15 111.66 C263.17 121.94 263.18 132.23 263.19 142.52 C263.19 147.96 263.2 153.41 263.21 158.86 C263.23 163.98 263.23 169.11 263.23 174.24 C263.23 176.12 263.23 178 263.24 179.88 C263.25 182.45 263.25 185.02 263.24 187.6 C263.25 188.71 263.25 188.71 263.26 189.84 C263.18 203.93 256.04 218.02 246.27 227.96 C230.66 242.01 211.73 243.32 191.76 243.3 C189.91 243.3 188.06 243.31 186.2 243.31 C182.34 243.32 178.47 243.32 174.61 243.32 C169.67 243.31 164.72 243.33 159.78 243.35 C155.96 243.36 152.14 243.37 148.32 243.36 C146.5 243.36 144.68 243.37 142.85 243.38 C140.31 243.39 137.76 243.38 135.22 243.37 C134.47 243.38 133.72 243.39 132.96 243.4 C127.36 243.34 123.34 242.03 119.1 238.35 C114.43 232.92 111.05 227.12 107.69 220.81 C90.16 189.02 64.92 170.3 30.18 159.86 C-13.88 147.93 -65.94 154.31 -105.83 176.5 C-110.99 179.51 -115.55 183.03 -120 187 C-120.82 187.63 -121.64 188.25 -122.48 188.89 C-134.91 199.29 -142.85 217.39 -144.3 233.28 C-144.44 236.67 -144.47 240.04 -144.44 243.44 C-144.43 244.63 -144.42 245.82 -144.41 247.04 C-144.26 255.41 -143.54 262.33 -140 270 C-139.6 270.99 -139.2 271.99 -138.79 273.01 C-135.04 281.49 -129.51 287.57 -123 294 C-122.03 294.99 -122.03 294.99 -121.04 295.99 C-96.74 319.02 -56.9 327.21 -25 332 C-23.86 332.18 -23.86 332.18 -22.69 332.36 C-8.65 334.54 5.44 335.84 19.59 337 C20.66 337.09 20.66 337.09 21.76 337.18 C23.73 337.34 25.69 337.5 27.66 337.66 C31 338 31 338 33.35 338.49 C55.54 342.78 79.72 341.33 102.24 341.26 C104.85 341.25 107.46 341.25 110.08 341.24 C134.2 341.21 158.29 341.02 182.37 339.26 C185.59 339.03 188.82 338.83 192.05 338.63 C203.58 337.85 214.97 336.02 226.38 334.19 C227.51 334.01 227.51 334.01 228.67 333.83 C238.28 332.3 247.4 330.17 256.63 327.08 C260 326 260 326 265 325 C265 383.74 265 442.48 265 503 C247.75 512.2 247.75 512.2 239.25 515.25 C238.41 515.56 237.57 515.87 236.7 516.2 C234.99 516.83 233.29 517.45 231.58 518.06 C229.86 518.69 228.15 519.33 226.44 519.98 C218.75 522.91 210.92 524.98 202.94 526.94 C201.89 527.2 201.89 527.2 200.83 527.46 C168.69 535.38 136.41 540.15 103.26 540.17 C101.69 540.17 100.11 540.17 98.53 540.18 C95.25 540.18 91.97 540.19 88.69 540.19 C84.53 540.19 80.38 540.2 76.22 540.22 C72.98 540.23 69.73 540.23 66.48 540.23 C64.95 540.23 63.42 540.23 61.89 540.24 C51.11 540.29 40.68 539.43 30 538 C28.06 537.78 26.13 537.57 24.19 537.36 C-18.98 532.42 -63.43 517.54 -95.55 487.3 C-97.68 485.3 -99.87 483.43 -102.12 481.56 C-107.07 477.25 -110.99 472.16 -115 467 C-115.72 466.11 -116.44 465.21 -117.18 464.29 C-124.13 455.44 -129.55 445.81 -135 436 C-135.4 435.3 -135.79 434.59 -136.2 433.87 C-145.92 416.65 -153.06 398.35 -159.31 379.62 C-159.71 378.44 -160.11 377.25 -160.51 376.03 C-165.73 360.08 -169.86 344.18 -172.62 327.62 C-172.77 326.74 -172.92 325.86 -173.07 324.96 C-179.97 283.68 -181.52 241.5 -176.12 199.94 C-176.04 199.24 -175.95 198.55 -175.86 197.83 C-167.87 135.46 -143.67 69.56 -93.03 29.29 C-82.01 20.97 -70.72 14.39 -58 9 C-56.33 8.27 -56.33 8.27 -54.62 7.54 C-37.19 0.64 -18.55 -0.77 0 0 Z " fill="#F5F3EF" transform="translate(1199,572)"/>
<path d="M0 0 C10.02 8.69 18.76 18.02 25.62 29.41 C26.3 30.52 26.97 31.63 27.66 32.78 C33.56 42.99 41.62 57.51 41.62 69.41 C-7.88 69.41 -57.38 69.41 -108.38 69.41 C-108.38 77.99 -108.38 86.57 -108.38 95.41 C-81.65 95.41 -54.92 95.41 -27.38 95.41 C-27.38 135.44 -27.38 135.44 -37.81 148.85 C-50.24 161.27 -66.33 163.69 -83.25 163.78 C-105.36 163.64 -127.24 158.8 -143.56 142.85 C-161.36 124.58 -168 100.86 -167.88 75.78 C-167.88 75.09 -167.87 74.4 -167.87 73.69 C-167.78 56.36 -164.61 40.75 -156.38 25.41 C-155.92 24.48 -155.45 23.55 -154.98 22.6 C-143.36 -0.04 -124.21 -15.85 -100.5 -24.53 C-66.25 -34.3 -26.68 -22.16 0 0 Z " fill="#1E1E1E" transform="translate(752.376953125,752.59228515625)"/>
<path d="M0 0 C9.87 6.55 16.62 15.51 19.06 27.37 C19.28 30.59 19.24 33.82 19.25 37.05 C19.26 37.92 19.27 38.78 19.28 39.66 C19.31 51.59 16.14 62.78 7.93 71.77 C-2.42 80.64 -13.99 81.06 -26.94 80.37 C-35.69 78.91 -43.07 73.36 -48.56 66.52 C-54.47 57.3 -55.95 47.02 -56.94 36.37 C-57.27 36.89 -57.6 37.41 -57.94 37.94 C-62.09 44.04 -66.93 48.16 -74.24 49.92 C-77.03 50.38 -79.63 50.48 -82.46 50.46 C-83.38 50.46 -84.3 50.46 -85.25 50.46 C-86.41 50.45 -87.56 50.44 -88.75 50.43 C-94.29 50.4 -94.29 50.4 -99.94 50.37 C-99.94 59.94 -99.94 69.51 -99.94 79.37 C-105.22 79.37 -110.5 79.37 -115.94 79.37 C-115.94 52.64 -115.94 25.91 -115.94 -1.63 C-70.39 -1.63 -70.39 -1.63 -60.38 7.55 C-56.72 12.08 -55.08 16.71 -53.94 22.37 C-53.59 21.58 -53.24 20.8 -52.88 19.99 C-48.11 9.85 -43.02 3.32 -32.72 -1.53 C-22.95 -4.38 -9.23 -4.77 0 0 Z " fill="#F1EFEB" transform="translate(1106.94140625,1201.6328125)"/>
<path d="M0 0 C9.87 6.55 16.62 15.51 19.06 27.37 C19.28 30.59 19.24 33.82 19.25 37.05 C19.26 37.92 19.27 38.78 19.28 39.66 C19.31 51.59 16.14 62.78 7.93 71.77 C-2.42 80.64 -13.99 81.06 -26.94 80.37 C-35.71 78.9 -43.01 73.35 -48.56 66.55 C-55.95 54.85 -57.47 40.76 -55.32 27.3 C-52.8 16.49 -47.39 8.13 -38.57 1.61 C-28.2 -4.73 -11 -5.68 0 0 Z " fill="#F1EFEB" transform="translate(831.94140625,1402.6328125)"/>
<path d="M0 0 C9.87 6.55 16.62 15.51 19.06 27.37 C19.28 30.59 19.24 33.82 19.25 37.05 C19.26 37.92 19.27 38.78 19.28 39.66 C19.31 51.59 16.14 62.78 7.93 71.77 C-2.42 80.64 -13.99 81.06 -26.94 80.37 C-35.71 78.9 -43.01 73.35 -48.56 66.55 C-55.95 54.85 -57.47 40.76 -55.32 27.3 C-52.8 16.49 -47.39 8.13 -38.57 1.61 C-28.2 -4.73 -11 -5.68 0 0 Z " fill="#F1EFEB" transform="translate(1238.94140625,1201.6328125)"/>
<path d="M0 0 C1.25 0.01 1.25 0.01 2.53 0.03 C12.99 0.33 19.67 3.56 27.29 10.79 C35.27 20.09 36.76 29.39 36.81 41.12 C36.83 42.18 36.85 43.23 36.88 44.31 C36.91 50.93 36.16 56.34 33.56 62.44 C33.2 63.3 32.83 64.15 32.46 65.04 C27.82 73.72 21.3 79.03 12.11 82.55 C1.76 85.13 -10.12 85 -19.44 79.44 C-20.51 78.8 -20.51 78.8 -21.6 78.15 C-30.31 72.3 -34.71 63.35 -37.44 53.44 C-37.98 49.44 -38.06 45.53 -38 41.5 C-37.99 40.45 -37.98 39.39 -37.97 38.31 C-37.76 30.36 -36.76 24.26 -32.44 17.44 C-31.98 16.69 -31.52 15.94 -31.05 15.16 C-23.6 4.19 -12.97 -0.17 0 0 Z " fill="#F2F0EC" transform="translate(1239.4375,1299.5625)"/>
<path d="M0 0 C7.92 0 15.84 0 24 0 C26.47 6.17 28.77 12.12 30.69 18.44 C34.58 31.03 38.81 43.51 43 56 C45.67 48.76 48.2 41.55 50.31 34.12 C52.44 26.69 54.81 19.34 57.25 12 C57.6 10.93 57.96 9.86 58.32 8.76 C58.65 7.77 58.99 6.77 59.33 5.75 C59.63 4.86 59.92 3.97 60.23 3.05 C61 1 61 1 62 0 C69.92 0 77.84 0 86 0 C86 27.06 86 54.12 86 82 C80.39 82 74.78 82 69 82 C68.5 53.29 68.5 53.29 68 24 C66.02 30.27 64.04 36.54 62 43 C61.01 46.11 60.02 49.23 59 52.44 C55.9 62.26 52.93 72.12 50 82 C45.38 82 40.76 82 36 82 C31.74 69.51 27.57 57.03 24.08 44.31 C22.27 37.76 20.16 31.48 18 25 C17.67 43.81 17.34 62.62 17 82 C11.39 82 5.78 82 0 82 C0 54.94 0 27.88 0 0 Z " fill="#F0EEEA" transform="translate(950,1400)"/>
<path d="M0 0 C7.92 0 15.84 0 24 0 C26.47 6.17 28.77 12.12 30.69 18.44 C34.58 31.03 38.81 43.51 43 56 C45.67 48.76 48.2 41.55 50.31 34.12 C52.44 26.69 54.81 19.34 57.25 12 C57.6 10.93 57.96 9.86 58.32 8.76 C58.65 7.77 58.99 6.77 59.33 5.75 C59.63 4.86 59.92 3.97 60.23 3.05 C61 1 61 1 62 0 C69.92 0 77.84 0 86 0 C86 27.06 86 54.12 86 82 C80.39 82 74.78 82 69 82 C68.5 53.29 68.5 53.29 68 24 C66.02 30.27 64.04 36.54 62 43 C61.01 46.11 60.02 49.23 59 52.44 C55.9 62.26 52.93 72.12 50 82 C45.38 82 40.76 82 36 82 C31.74 69.51 27.57 57.03 24.08 44.31 C22.27 37.76 20.16 31.48 18 25 C17.67 43.81 17.34 62.62 17 82 C11.39 82 5.78 82 0 82 C0 54.94 0 27.88 0 0 Z " fill="#F0EEEA" transform="translate(856,1400)"/>
<path d="M0 0 C10.09 -0.12 10.09 -0.12 20.38 -0.25 C22.48 -0.29 24.58 -0.32 26.74 -0.36 C28.44 -0.37 30.14 -0.38 31.84 -0.39 C32.69 -0.41 33.55 -0.43 34.43 -0.45 C42.16 -0.46 49.24 1.63 55.44 6.38 C59.72 10.77 61.18 14.3 61.5 20.38 C61.34 26.06 59.7 29.73 56 34 C53.26 36.54 51.53 37.82 48 39 C48.78 39.33 48.78 39.33 49.57 39.66 C55.82 42.5 59.34 45.45 62.31 51.81 C63.96 59.46 63.33 64.93 59.46 71.84 C54.45 79.26 47.91 78.94 39 81 C26.13 81 13.26 81 0 81 C0 54.27 0 27.54 0 0 Z " fill="#F3F1ED" transform="translate(992,1301)"/>
<path d="M0 0 C7.92 0 15.84 0 24 0 C24.99 2.97 25.98 5.94 27 9 C27.63 10.82 28.26 12.64 28.9 14.45 C32.15 23.7 35.39 32.93 38.19 42.32 C39.37 46.24 40.68 50.12 42 54 C44.85 47.05 47.47 40.04 49.94 32.94 C50.28 31.94 50.63 30.95 50.99 29.92 C53.35 23.08 55.52 16.2 57.45 9.23 C58.39 5.89 59.43 3.13 61 0 C68.92 0 76.84 0 85 0 C85 26.73 85 53.46 85 81 C79.39 81 73.78 81 68 81 C67.67 62.19 67.34 43.38 67 24 C65.68 28.29 64.36 32.58 63 37 C61.98 40.27 60.96 43.54 59.94 46.81 C59.72 47.5 59.51 48.18 59.29 48.88 C58.97 49.9 58.97 49.9 58.65 50.93 C58 53.01 57.35 55.08 56.71 57.15 C54.23 65.13 51.67 73.08 49 81 C44.71 81 40.42 81 36 81 C32.64 72.39 29.57 63.84 27.14 54.92 C25.48 49.03 23.44 43.25 21.46 37.46 C21.17 36.61 20.88 35.76 20.59 34.88 C20.33 34.13 20.07 33.39 19.81 32.61 C18.73 29.12 17.89 25.55 17 22 C16.67 41.47 16.34 60.94 16 81 C10.72 81 5.44 81 0 81 C0 54.27 0 27.54 0 0 Z " fill="#F3F1ED" transform="translate(898,1301)"/>
<path d="M0 0 C7.05 -0.1 14.11 -0.21 21.38 -0.31 C23.58 -0.36 25.79 -0.4 28.06 -0.45 C29.84 -0.47 31.62 -0.48 33.4 -0.49 C34.75 -0.53 34.75 -0.53 36.12 -0.57 C43.72 -0.57 50.3 1.56 55.95 6.81 C61.79 13.16 62.47 19.09 62.3 27.56 C61.65 34.98 58.69 38.59 53.25 43.5 C51.84 44.68 50.43 45.85 49 47 C50.36 51.29 51.97 55.36 53.82 59.46 C54.36 60.65 54.89 61.85 55.44 63.08 C56 64.32 56.56 65.57 57.12 66.81 C58.23 69.28 59.34 71.74 60.45 74.21 C60.94 75.29 61.43 76.38 61.93 77.5 C63 80 63 80 63 81 C57.06 81 51.12 81 45 81 C43.29 76.91 41.58 72.82 39.87 68.72 C39.29 67.33 38.71 65.93 38.13 64.54 C37.29 62.54 36.46 60.54 35.62 58.54 C35.12 57.33 34.62 56.13 34.1 54.89 C33 52 33 52 33 50 C27.39 50 21.78 50 16 50 C16 60.23 16 70.46 16 81 C10.72 81 5.44 81 0 81 C0 54.27 0 27.54 0 0 Z " fill="#F3F2EE" transform="translate(1107,1401)"/>
<path d="M0 0 C7.05 -0.1 14.11 -0.21 21.38 -0.31 C23.58 -0.36 25.79 -0.4 28.06 -0.45 C29.84 -0.47 31.62 -0.48 33.4 -0.49 C34.75 -0.53 34.75 -0.53 36.12 -0.57 C43.72 -0.57 50.3 1.56 55.95 6.81 C61.79 13.16 62.47 19.09 62.3 27.56 C61.65 34.98 58.69 38.59 53.25 43.5 C51.84 44.68 50.43 45.85 49 47 C50.36 51.29 51.97 55.36 53.82 59.46 C54.36 60.65 54.89 61.85 55.44 63.08 C56 64.32 56.56 65.57 57.12 66.81 C58.23 69.28 59.34 71.74 60.45 74.21 C60.94 75.29 61.43 76.38 61.93 77.5 C63 80 63 80 63 81 C57.06 81 51.12 81 45 81 C43.29 76.91 41.58 72.82 39.87 68.72 C39.29 67.33 38.71 65.93 38.13 64.54 C37.29 62.54 36.46 60.54 35.62 58.54 C35.12 57.33 34.62 56.13 34.1 54.89 C33 52 33 52 33 50 C27.39 50 21.78 50 16 50 C16 60.23 16 70.46 16 81 C10.72 81 5.44 81 0 81 C0 54.27 0 27.54 0 0 Z " fill="#F3F2EE" transform="translate(1122,1301)"/>
<path d="M0 0 C5.61 0 11.22 0 17 0 C17 27.06 17 54.12 17 82 C2 82 2 82 -2.05 78.07 C-3.07 76.4 -4.05 74.71 -5 73 C-6.03 71.5 -7.08 70.01 -8.14 68.53 C-9.18 67 -10.22 65.47 -11.25 63.94 C-12.38 62.27 -13.52 60.6 -14.65 58.94 C-15.21 58.11 -15.77 57.28 -16.35 56.43 C-18.84 52.76 -21.36 49.1 -23.88 45.44 C-24.29 44.83 -24.71 44.23 -25.13 43.6 C-28.72 38.38 -32.36 33.19 -36 28 C-36.33 45.82 -36.66 63.64 -37 82 C-42.28 82 -47.56 82 -53 82 C-53 55.27 -53 28.54 -53 1 C-36 1 -36 1 -32.5 3.69 C-31.41 5.52 -31.41 5.52 -30.44 7.56 C-29.59 9.03 -28.74 10.49 -27.88 11.96 C-27.21 13.16 -27.21 13.16 -26.53 14.39 C-23.6 19.39 -20.16 24.04 -16.81 28.75 C-11.43 36.43 -6.2 44.19 -1 52 C-0.67 34.84 -0.34 17.68 0 0 Z " fill="#F2F0EC" transform="translate(880,1199)"/>
<path d="M0 0 C44.95 0 44.95 0 53.89 7.39 C54.48 8.15 55.08 8.91 55.69 9.69 C56.31 10.45 56.93 11.22 57.57 12.01 C60.63 16.27 60.25 20.02 60.31 25.12 C60.34 25.96 60.37 26.79 60.4 27.64 C60.47 34.56 58.91 39.83 54.18 44.99 C53.56 45.43 52.95 45.86 52.31 46.31 C51.71 46.76 51.11 47.21 50.49 47.68 C42.71 51.81 35.65 52.4 26.94 52.19 C23.33 52.13 19.72 52.06 16 52 C16 61.57 16 71.14 16 81 C10.72 81 5.44 81 0 81 C0 54.27 0 27.54 0 0 Z " fill="#F4F2EE" transform="translate(991,1200)"/>
<path d="M0 0 C5.61 0 11.22 0 17 0 C17 10.89 17 21.78 17 33 C28.55 33 40.1 33 52 33 C52 22.11 52 11.22 52 0 C57.61 0 63.22 0 69 0 C69 27.06 69 54.12 69 82 C63.39 82 57.78 82 52 82 C52 70.45 52 58.9 52 47 C40.45 47 28.9 47 17 47 C17 58.55 17 70.1 17 82 C11.39 82 5.78 82 0 82 C0 54.94 0 27.88 0 0 Z " fill="#EFEDE9" transform="translate(748,1300)"/>
<path d="M0 0 C5.94 0 11.88 0 18 0 C21.72 8.73 25.07 17.54 28.23 26.49 C28.71 27.84 29.19 29.2 29.67 30.56 C30.67 33.37 31.67 36.19 32.67 39.01 C33.94 42.61 35.21 46.2 36.49 49.8 C37.48 52.59 38.47 55.38 39.46 58.17 C39.93 59.49 40.4 60.82 40.87 62.14 C41.52 64 42.18 65.85 42.83 67.7 C43.2 68.75 43.58 69.8 43.96 70.89 C45.07 74.22 46.03 77.61 47 81 C41.39 81 35.78 81 30 81 C29 78.21 28 75.42 27 72.62 C26.71 71.83 26.43 71.04 26.13 70.22 C25.86 69.46 25.59 68.7 25.31 67.91 C25.06 67.21 24.81 66.51 24.55 65.79 C24 64 24 64 24 62 C14.43 62.33 4.86 62.66 -5 63 C-7.31 68.94 -9.62 74.88 -12 81 C-17.61 81 -23.22 81 -29 81 C-24.24 66.45 -19.21 52 -14 37.6 C-12.8 34.28 -11.6 30.95 -10.41 27.63 C-9.63 25.48 -8.86 23.33 -8.08 21.18 C-7.73 20.2 -7.38 19.22 -7.02 18.22 C-4.8 12.09 -2.45 6.04 0 0 Z " fill="#F2F0EC" transform="translate(848,1301)"/>
<path d="M0 0 C5.94 0 11.88 0 18 0 C21.72 8.73 25.07 17.54 28.23 26.49 C28.71 27.84 29.19 29.2 29.67 30.56 C30.67 33.37 31.67 36.19 32.67 39.01 C33.94 42.61 35.21 46.2 36.49 49.8 C37.48 52.59 38.47 55.38 39.46 58.17 C39.93 59.49 40.4 60.82 40.87 62.14 C41.52 64 42.18 65.85 42.83 67.7 C43.2 68.75 43.58 69.8 43.96 70.89 C45.07 74.22 46.03 77.61 47 81 C41.39 81 35.78 81 30 81 C29 78.21 28 75.42 27 72.62 C26.71 71.83 26.43 71.04 26.13 70.22 C25.86 69.46 25.59 68.7 25.31 67.91 C25.06 67.21 24.81 66.51 24.55 65.79 C24 64 24 64 24 62 C14.43 62.33 4.86 62.66 -5 63 C-7.31 68.94 -9.62 74.88 -12 81 C-17.61 81 -23.22 81 -29 81 C-24.24 66.45 -19.21 52 -14 37.6 C-12.8 34.28 -11.6 30.95 -10.41 27.63 C-9.63 25.48 -8.86 23.33 -8.08 21.18 C-7.73 20.2 -7.38 19.22 -7.02 18.22 C-4.8 12.09 -2.45 6.04 0 0 Z " fill="#F2F0EC" transform="translate(777,1200)"/>
<path d="M0 0 C18.48 0 36.96 0 56 0 C56 4.95 56 9.9 56 15 C43.13 15 30.26 15 17 15 C17 21.27 17 27.54 17 34 C28.22 34 39.44 34 51 34 C51 38.62 51 43.24 51 48 C39.78 48 28.56 48 17 48 C17 54.6 17 61.2 17 68 C30.2 68 43.4 68 57 68 C57 72.62 57 77.24 57 82 C38.19 82 19.38 82 0 82 C0 54.94 0 27.88 0 0 Z " fill="#EFEDE9" transform="translate(1247,1400)"/>
<path d="M0 0 C18.48 0 36.96 0 56 0 C56 4.62 56 9.24 56 14 C43.13 14 30.26 14 17 14 C17 20.6 17 27.2 17 34 C28.22 34 39.44 34 51 34 C51 38.62 51 43.24 51 48 C39.78 48 28.56 48 17 48 C17 54.6 17 61.2 17 68 C30.2 68 43.4 68 57 68 C57 72.62 57 77.24 57 82 C38.19 82 19.38 82 0 82 C0 54.94 0 27.88 0 0 Z " fill="#F0EEEA" transform="translate(1044,1400)"/>
<path d="M0 0 C18.15 0 36.3 0 55 0 C55 4.29 55 8.58 55 13 C42.13 13 29.26 13 16 13 C16 19.6 16 26.2 16 33 C27.22 33 38.44 33 50 33 C50 37.62 50 42.24 50 47 C38.78 47 27.56 47 16 47 C16 53.6 16 60.2 16 67 C29.2 67 42.4 67 56 67 C56 71.62 56 76.24 56 81 C37.52 81 19.04 81 0 81 C0 54.27 0 27.54 0 0 Z " fill="#F5F3EF" transform="translate(1060,1301)"/>
<path d="M0 0 C0.84 -0.02 1.68 -0.03 2.54 -0.05 C11.9 0.01 20.33 3.94 27 10.5 C31.76 16.66 33 20.51 34 28.5 C28.06 28.5 22.12 28.5 16 28.5 C15.34 26.19 14.68 23.88 14 21.5 C10.73 17.63 7.72 14.84 2.6 14.2 C-2.51 14.18 -5.77 14.33 -10 17.5 C-10.66 17.5 -11.32 17.5 -12 17.5 C-12.68 19.16 -13.34 20.83 -14 22.5 C-14.77 24.27 -14.77 24.27 -15.55 26.07 C-17.33 30.86 -17.46 35.31 -17.38 40.38 C-17.37 41.26 -17.36 42.14 -17.35 43.05 C-17.15 51.9 -15.74 59.54 -10 66.5 C-5.14 69.62 0.45 69.07 6 68.5 C9.89 66.97 11.38 65.73 13.24 62.01 C14.26 59.54 15.14 57.02 16 54.5 C21.94 54.5 27.88 54.5 34 54.5 C31.98 63.85 29.88 72.41 21.82 78.4 C11.84 84.41 0.31 85.16 -10.96 82.91 C-20.17 79.76 -27.1 72.9 -31.5 64.38 C-37.24 52.07 -38.39 36.78 -34.38 23.69 C-30.17 13.3 -22.75 5.74 -12.5 1.33 C-8.33 -0.05 -4.36 -0.08 0 0 Z " fill="#F1F0EC" transform="translate(1208,1399.5)"/>
<path d="M0 0 C0.84 -0.02 1.68 -0.03 2.54 -0.05 C11.9 0.01 20.33 3.94 27 10.5 C31.76 16.66 33 20.51 34 28.5 C28.06 28.5 22.12 28.5 16 28.5 C15.34 26.19 14.68 23.88 14 21.5 C10.73 17.63 7.72 14.84 2.6 14.2 C-2.51 14.18 -5.77 14.33 -10 17.5 C-10.66 17.5 -11.32 17.5 -12 17.5 C-12.68 19.16 -13.34 20.83 -14 22.5 C-14.77 24.27 -14.77 24.27 -15.55 26.07 C-17.33 30.86 -17.46 35.31 -17.38 40.38 C-17.37 41.26 -17.36 42.14 -17.35 43.05 C-17.15 51.9 -15.74 59.54 -10 66.5 C-5.14 69.62 0.45 69.07 6 68.5 C9.89 66.97 11.38 65.73 13.24 62.01 C14.26 59.54 15.14 57.02 16 54.5 C21.94 54.5 27.88 54.5 34 54.5 C31.98 63.85 29.88 72.41 21.82 78.4 C11.84 84.41 0.31 85.16 -10.96 82.91 C-20.17 79.76 -27.1 72.9 -31.5 64.38 C-37.24 52.07 -38.39 36.78 -34.38 23.69 C-30.17 13.3 -22.75 5.74 -12.5 1.33 C-8.33 -0.05 -4.36 -0.08 0 0 Z " fill="#F1F0EC" transform="translate(741,1399.5)"/>
<path d="M0 0 C0.84 -0.02 1.68 -0.03 2.54 -0.05 C11.9 0.01 20.33 3.94 27 10.5 C31.76 16.66 33 20.51 34 28.5 C28.06 28.5 22.12 28.5 16 28.5 C15.34 26.19 14.68 23.88 14 21.5 C10.73 17.63 7.72 14.84 2.6 14.2 C-2.51 14.18 -5.77 14.33 -10 17.5 C-10.66 17.5 -11.32 17.5 -12 17.5 C-12.68 19.16 -13.34 20.83 -14 22.5 C-14.77 24.27 -14.77 24.27 -15.55 26.07 C-17.33 30.86 -17.46 35.31 -17.38 40.38 C-17.37 41.26 -17.36 42.14 -17.35 43.05 C-17.15 51.9 -15.74 59.54 -10 66.5 C-5.14 69.62 0.45 69.07 6 68.5 C9.89 66.97 11.38 65.73 13.24 62.01 C14.26 59.54 15.14 57.02 16 54.5 C21.94 54.5 27.88 54.5 34 54.5 C31.98 63.85 29.88 72.41 21.82 78.4 C11.84 84.41 0.31 85.16 -10.96 82.91 C-20.17 79.76 -27.1 72.9 -31.5 64.38 C-37.24 52.07 -38.39 36.78 -34.38 23.69 C-30.17 13.3 -22.75 5.74 -12.5 1.33 C-8.33 -0.05 -4.36 -0.08 0 0 Z " fill="#F1F0EC" transform="translate(709,1299.5)"/>
<path d="M0 0 C18.15 0 36.3 0 55 0 C55 4.29 55 8.58 55 13 C42.13 13 29.26 13 16 13 C16 19.93 16 26.86 16 34 C27.22 34 38.44 34 50 34 C50 38.29 50 42.58 50 47 C38.78 47 27.56 47 16 47 C16 58.22 16 69.44 16 81 C10.72 81 5.44 81 0 81 C0 54.27 0 27.54 0 0 Z " fill="#F5F3EF" transform="translate(1282,1301)"/>
<path d="M0 0 C21.45 0 42.9 0 65 0 C65 4.62 65 9.24 65 14 C57.08 14 49.16 14 41 14 C41 36.11 41 58.22 41 81 C35.39 81 29.78 81 24 81 C24 58.89 24 36.78 24 14 C16.08 14 8.16 14 0 14 C0 9.38 0 4.76 0 0 Z " fill="#F2F0EC" transform="translate(899,1200)"/>
<path d="M0 0 C5.61 0 11.22 0 17 0 C17 22.44 17 44.88 17 68 C28.55 68 40.1 68 52 68 C52 72.62 52 77.24 52 82 C34.84 82 17.68 82 0 82 C0 54.94 0 27.88 0 0 Z " fill="#F1EFEB" transform="translate(1131,1199)"/>
<path d="M0 0 C5.39 3.8 8.01 8.58 9.69 14.88 C10 18.3 10.01 21.69 10 25.12 C10.02 26.02 10.03 26.91 10.05 27.82 C10.05 35.4 9.07 43.21 4.31 49.38 C-0.93 54.37 -6.24 54.31 -13.21 54.19 C-17.29 53.78 -19.38 52.73 -22.31 49.88 C-28.2 42.36 -28.7 35.35 -28.75 26.12 C-28.78 25.09 -28.82 24.06 -28.85 22.99 C-28.9 15.01 -27.25 8.26 -21.8 2.19 C-15.73 -3.2 -7.03 -4.1 0 0 Z " fill="#1F1F1F" transform="translate(823.3125,1415.125)"/>
<path d="M0 0 C5.39 3.8 8.01 8.58 9.69 14.88 C10 18.3 10.01 21.69 10 25.12 C10.02 26.02 10.03 26.91 10.05 27.82 C10.05 35.4 9.07 43.21 4.31 49.38 C-0.93 54.37 -6.24 54.31 -13.21 54.19 C-17.29 53.78 -19.38 52.73 -22.31 49.88 C-28.2 42.36 -28.7 35.35 -28.75 26.12 C-28.78 25.09 -28.82 24.06 -28.85 22.99 C-28.9 15.01 -27.25 8.26 -21.8 2.19 C-15.73 -3.2 -7.03 -4.1 0 0 Z " fill="#1F1F1F" transform="translate(1230.3125,1214.125)"/>
<path d="M0 0 C5.39 3.8 8.01 8.58 9.69 14.88 C10 18.3 10.01 21.69 10 25.12 C10.02 26.02 10.03 26.91 10.05 27.82 C10.05 35.4 9.07 43.21 4.31 49.38 C-0.93 54.37 -6.24 54.31 -13.21 54.19 C-17.29 53.78 -19.38 52.73 -22.31 49.88 C-28.2 42.36 -28.7 35.35 -28.75 26.12 C-28.78 25.09 -28.82 24.06 -28.85 22.99 C-28.9 15.01 -27.25 8.26 -21.8 2.19 C-15.73 -3.2 -7.03 -4.1 0 0 Z " fill="#1F1F1F" transform="translate(1098.3125,1214.125)"/>
<path d="M0 0 C5.79 3.31 8.05 7.53 10.04 13.69 C11.19 18.36 11.2 22.97 11.19 27.75 C11.22 28.72 11.24 29.7 11.27 30.7 C11.29 37.9 9.65 43.27 5.69 49.31 C1.21 53.68 -2.43 54.5 -8.56 54.69 C-13.61 54.63 -17.08 54.37 -20.95 51.01 C-26.85 43.67 -27.53 35.15 -27.62 26.12 C-27.65 25.22 -27.68 24.31 -27.71 23.37 C-27.79 15.54 -25.68 9.95 -21.44 3.44 C-15.35 -2.65 -7.69 -3.52 0 0 Z " fill="#1F1F1F" transform="translate(1247.3125,1314.6875)"/>
<path d="M0 0 C5.28 0 10.56 0 16 0 C16 26.73 16 53.46 16 81 C10.72 81 5.44 81 0 81 C0 54.27 0 27.54 0 0 Z " fill="#F6F4F0" transform="translate(966,1200)"/>
<path d="M0 0 C2.97 -0.1 5.94 -0.21 9 -0.31 C9.92 -0.36 10.84 -0.4 11.79 -0.45 C18.01 -0.55 22.25 0.9 27 5 C29.98 9.47 29.73 13.76 29 19 C27.41 22.33 25.18 24.34 21.94 26.14 C17.68 27.39 13.6 27.21 9.19 27.12 C6.16 27.08 3.12 27.04 0 27 C0 18.09 0 9.18 0 0 Z " fill="#232322" transform="translate(1007,1212)"/>
<path d="M0 0 C3.16 -0.08 6.31 -0.16 9.56 -0.25 C10.54 -0.29 11.52 -0.32 12.53 -0.36 C18.58 -0.44 22.09 0.41 27 4 C29.7 8.04 29.54 11.25 29 16 C27.38 19.74 25.44 21.85 22 24 C19.18 24.94 17.47 25.12 14.55 25.1 C13.79 25.1 13.02 25.09 12.24 25.09 C11.27 25.08 10.31 25.07 9.31 25.06 C4.7 25.03 4.7 25.03 0 25 C0 16.75 0 8.5 0 0 Z " fill="#212120" transform="translate(1123,1413)"/>
<path d="M0 0 C3.16 -0.08 6.31 -0.16 9.56 -0.25 C10.54 -0.29 11.52 -0.32 12.53 -0.36 C18.58 -0.44 22.09 0.41 27 4 C29.7 8.04 29.54 11.25 29 16 C27.38 19.74 25.44 21.85 22 24 C19.18 24.94 17.47 25.12 14.55 25.1 C13.79 25.1 13.02 25.09 12.24 25.09 C11.27 25.08 10.31 25.07 9.31 25.06 C4.7 25.03 4.7 25.03 0 25 C0 16.75 0 8.5 0 0 Z " fill="#212120" transform="translate(1138,1313)"/>
<path d="M0 0 C3.18 -0.06 6.35 -0.12 9.62 -0.19 C11.11 -0.23 11.11 -0.23 12.62 -0.27 C19.09 -0.33 23.1 0.86 28.38 4.75 C30.7 7.98 30.48 10.11 30 14 C28.17 18.23 26.19 20.14 22 22 C18.22 22.37 14.48 22.28 10.69 22.19 C7.16 22.13 3.63 22.06 0 22 C0 14.74 0 7.48 0 0 Z " fill="#242424" transform="translate(1008,1347)"/>
<path d="M0 0 C2.97 -0.08 5.94 -0.16 9 -0.25 C10.38 -0.3 10.38 -0.3 11.79 -0.36 C17.51 -0.44 22.4 0.37 27 4 C29.1 7.45 29.57 9.96 29 14 C27.17 16.92 25.13 19.43 22 21 C20.33 21.08 18.66 21.11 16.99 21.1 C16.01 21.09 15.02 21.09 14 21.09 C12.97 21.08 11.94 21.07 10.88 21.06 C9.31 21.06 9.31 21.06 7.72 21.05 C5.15 21.04 2.57 21.02 0 21 C0 14.07 0 7.14 0 0 Z " fill="#252525" transform="translate(1008,1313)"/>
<path d="M0 0 C2.04 3.06 3.01 5.65 4.16 9.13 C4.56 10.33 4.96 11.53 5.38 12.76 C5.99 14.64 5.99 14.64 6.62 16.56 C7.05 17.83 7.47 19.1 7.9 20.37 C11 29.73 11 29.73 11 32 C4.07 32 -2.86 32 -10 32 C-9.31 27.19 -8.69 23.56 -7.19 19.1 C-6.83 18.05 -6.48 16.99 -6.12 15.9 C-5.75 14.82 -5.38 13.74 -5 12.62 C-4.45 10.97 -4.45 10.97 -3.88 9.28 C-1.14 1.14 -1.14 1.14 0 0 Z " fill="#2A2929" transform="translate(857,1317)"/>
<path d="M0 0 C2.04 3.06 3.01 5.65 4.16 9.13 C4.56 10.33 4.96 11.53 5.38 12.76 C5.99 14.64 5.99 14.64 6.62 16.56 C7.05 17.83 7.47 19.1 7.9 20.37 C11 29.73 11 29.73 11 32 C4.07 32 -2.86 32 -10 32 C-9.31 27.19 -8.69 23.56 -7.19 19.1 C-6.83 18.05 -6.48 16.99 -6.12 15.9 C-5.75 14.82 -5.38 13.74 -5 12.62 C-4.45 10.97 -4.45 10.97 -3.88 9.28 C-1.14 1.14 -1.14 1.14 0 0 Z " fill="#2A2929" transform="translate(786,1216)"/>
<path d="M0 0 C0.33 0 0.66 0 1 0 C1 20.13 1 40.26 1 61 C0.67 61 0.34 61 0 61 C-0.02 60.03 -0.02 60.03 -0.03 59.05 C-0.14 52.35 -0.25 45.65 -0.37 38.95 C-0.42 36.45 -0.46 33.94 -0.5 31.44 C-0.55 27.85 -0.62 24.26 -0.68 20.67 C-0.7 19.55 -0.72 18.42 -0.73 17.27 C-0.75 16.23 -0.77 15.19 -0.79 14.11 C-0.81 13.2 -0.83 12.28 -0.84 11.33 C-0.91 8.84 -0.91 8.84 -2 6 C-1.06 2.81 -1.06 2.81 0 0 Z " fill="#434342" transform="translate(1018,1421)"/>
<path d="M0 0 C0.33 0 0.66 0 1 0 C1 20.13 1 40.26 1 61 C0.67 61 0.34 61 0 61 C-0.02 60.03 -0.02 60.03 -0.03 59.05 C-0.14 52.35 -0.25 45.65 -0.37 38.95 C-0.42 36.45 -0.46 33.94 -0.5 31.44 C-0.55 27.85 -0.62 24.26 -0.68 20.67 C-0.7 19.55 -0.72 18.42 -0.73 17.27 C-0.75 16.23 -0.77 15.19 -0.79 14.11 C-0.81 13.2 -0.83 12.28 -0.84 11.33 C-0.91 8.84 -0.91 8.84 -2 6 C-1.06 2.81 -1.06 2.81 0 0 Z " fill="#434342" transform="translate(924,1421)"/>
</svg>
